<mxfile host="app.diagrams.net" modified="2023-10-07T22:51:09.835Z" agent="Mozilla/5.0 (Windows NT 10.0; Win64; x64) AppleWebKit/537.36 (KHTML, like Gecko) Chrome/117.0.0.0 Safari/537.36" version="22.0.4" etag="lB4OGSM5UkO0IAQruZeu" type="github">
  <diagram name="Page-1" id="lCrn89Z_Jqhp2TMQxoPL">
    <mxGraphModel>
      <root>
        <mxCell id="0" />
        <mxCell id="1" parent="0" />
      </root>
    </mxGraphModel>
  </diagram>
</mxfile>
